<?xml version='1.0' encoding='utf-8'?>
<svg xmlns="http://www.w3.org/2000/svg" version="1.1" viewBox="64.5375 123.952 1973.7125 1797.318" width="400" height="400" preserveAspectRatio="xMidYMid meet">
  <defs>
    <linearGradient id="Gradient1" gradientUnits="userSpaceOnUse" x1="1133.48" y1="1990.23" x2="1780.39" y2="1292.51">
      <stop class="stop0" offset="0" stop-opacity="1" stop-color="rgb(66,136,170)" />
      <stop class="stop1" offset="1" stop-opacity="1" stop-color="rgb(77,161,192)" />
    </linearGradient>
    <linearGradient id="Gradient2" gradientUnits="userSpaceOnUse" x1="894.935" y1="1150.17" x2="674.628" y2="1653.33">
      <stop class="stop0" offset="0" stop-opacity="1" stop-color="rgb(52,110,181)" />
      <stop class="stop1" offset="1" stop-opacity="1" stop-color="rgb(69,147,226)" />
    </linearGradient>
  </defs>
  <path transform="translate(0,0)" fill="rgb(71,150,226)" d="M 137.849 1182.47 C 135.426 1180.52 133.037 1178.52 130.685 1176.48 C 92.2507 1143.03 72.2861 1101.81 68.5338 1050.93 C 67.0746 1031.14 68.356 1013.52 68.596 993.764 L 68.8299 905.368 L 68.5161 534.649 L 68.0272 355.827 C 68.1172 326.504 66.3357 293.403 70.8708 264.822 C 82.8774 189.169 147.808 127.554 225.334 125.138 C 258.82 124.095 293.34 124.858 326.932 124.88 L 521.603 124.952 L 1094.29 124.964 L 1454.26 124.958 L 1563.4 124.959 C 1581.19 124.953 1610.05 123.952 1626.93 125.992 C 1661.2 130.24 1693.26 145.132 1718.61 168.569 C 1750.33 197.441 1770.79 242.298 1772.73 285.036 C 1773.7 306.43 1773.19 330.719 1773.17 352.37 L 1773.15 456.415 L 1773.14 791.769 L 1773.07 962.219 C 1773.06 1029.67 1779.99 1094.42 1734.12 1150.17 C 1728.45 1157.06 1722.07 1163.11 1716.06 1169.67 C 1709.41 1174.64 1700.98 1182.08 1694.47 1186.49 C 1674.84 1199.79 1633.88 1214.25 1610.24 1213.12 C 1596.58 1214.53 1573.24 1213.84 1558.65 1213.83 L 1465 1213.75 L 1158.71 1213.69 L 1082.82 1213.74 C 1076 1213.75 1052.34 1213.33 1047.09 1214.67 L 1046.02 1216.16 C 1044.23 1273.76 1046.83 1335.29 1045.93 1393.85 C 1033.01 1400.86 1019.21 1407.44 1006.96 1415.08 C 955.267 1447.28 915.506 1497.88 898.581 1556.6 C 895.644 1566.79 892.277 1582.45 888.574 1591.78 C 876.112 1595.77 818.794 1593.51 816.282 1595.72 C 758.993 1597.26 694.672 1595.76 636.828 1595.79 L 577.15 1595.85 C 550.254 1595.86 528.373 1598.41 507.082 1578.59 C 476.943 1550.53 475.04 1501.42 503.192 1471.34 C 512.508 1461.27 524.465 1454.02 537.701 1450.42 C 558.912 1444.72 578.227 1448.82 599.278 1447.11 C 653.578 1442.7 730.747 1462.47 772.281 1418.49 C 797.013 1392.31 791.587 1346.15 791.95 1313.53 C 792.16 1294.74 792.98 1273.01 792.053 1254.67 C 792.613 1241.79 792.345 1227.13 792.634 1213.94 C 744.788 1213.59 696.94 1213.5 649.092 1213.69 L 398.805 1213.68 L 290.259 1213.75 C 273.864 1213.76 245.363 1214.55 229.896 1213.12 C 199.132 1215.83 163.045 1198.56 137.849 1182.47 z M 1164.5 1096.38 L 1470.89 1096.35 L 1560.33 1096.33 C 1590.49 1096.49 1620.32 1102.27 1643.52 1078.98 C 1652.5 1069.93 1658.12 1058.09 1659.47 1045.41 C 1661.39 1028.13 1659.91 982.57 1659.8 963.006 L 1660.04 819.165 L 1659.92 505.212 C 1659.96 439.404 1660.17 373.592 1660.05 307.783 C 1660.01 286.944 1657.93 272.733 1642.2 257.4 C 1621.93 237.654 1598.06 240.6 1571.96 240.562 L 1511.16 240.545 L 1318.3 240.618 L 682.168 240.506 L 372.769 240.534 L 282.575 240.586 C 263.424 240.642 233.733 238.599 216.563 246.372 C 178.811 263.464 181.056 299.169 181.363 333.875 L 182.076 826.383 L 182.234 972.456 C 182.226 989.25 180.767 1029.53 182.594 1044.19 C 184.23 1057.99 190.489 1070.82 200.352 1080.61 C 210.431 1090.58 219.096 1094.9 233.073 1095.56 C 264.723 1097.06 297.857 1096.25 329.614 1096.31 L 530.509 1096.35 L 1164.5 1096.38 z" />
  <path transform="translate(0,0)" fill="url(#Gradient2)" d="M 229.896 1213.12 C 244.103 1211.43 277.514 1212.49 293.713 1212.51 L 416.176 1212.52 L 845.962 1212.84 L 1367.07 1212.63 L 1527.98 1212.71 C 1551.59 1212.73 1587.72 1211.54 1610.24 1213.12 C 1596.58 1214.53 1573.24 1213.84 1558.65 1213.83 L 1465 1213.75 L 1158.71 1213.69 L 1082.82 1213.74 C 1076 1213.75 1052.34 1213.33 1047.09 1214.67 L 1046.02 1216.16 C 1044.23 1273.76 1046.83 1335.29 1045.93 1393.85 C 1033.01 1400.86 1019.21 1407.44 1006.96 1415.08 C 955.267 1447.28 915.506 1497.88 898.581 1556.6 C 895.644 1566.79 892.277 1582.45 888.574 1591.78 C 876.112 1595.77 818.794 1593.51 816.282 1595.72 C 758.993 1597.26 694.672 1595.76 636.828 1595.79 L 577.15 1595.85 C 550.254 1595.86 528.373 1598.41 507.082 1578.59 C 476.943 1550.53 475.04 1501.42 503.192 1471.34 C 512.508 1461.27 524.465 1454.02 537.701 1450.42 C 558.912 1444.72 578.227 1448.82 599.278 1447.11 C 653.578 1442.7 730.747 1462.47 772.281 1418.49 C 797.013 1392.31 791.587 1346.15 791.95 1313.53 C 792.16 1294.74 792.98 1273.01 792.053 1254.67 C 792.613 1241.79 792.345 1227.13 792.634 1213.94 C 744.788 1213.59 696.94 1213.5 649.092 1213.69 L 398.805 1213.68 L 290.259 1213.75 C 273.864 1213.76 245.363 1214.55 229.896 1213.12 z" />
  <path transform="translate(0,0)" fill="url(#Gradient1)" d="M 1045.93 1393.85 C 1110.24 1362.6 1160.93 1368.65 1229.4 1368.51 L 1428.44 1368.52 L 1659.8 1368.58 L 1732.15 1368.46 C 1746.33 1368.41 1763.78 1367.94 1777.77 1368.82 C 1802.09 1370.34 1826.09 1375.15 1849.11 1383.11 C 1915.64 1406.65 1970.12 1455.6 2000.62 1519.24 C 2033.79 1587.52 2038.25 1666.24 2013.02 1737.84 C 1988.96 1804.92 1935.2 1864.28 1870.47 1894.24 C 1842.21 1907.23 1812.02 1915.51 1781.09 1918.74 C 1756.34 1921.1 1709.66 1919.37 1683.66 1919.47 L 1467.16 1919.47 L 1244.87 1919.56 C 1214.4 1919.54 1167.95 1921.27 1138.89 1919.21 C 1113.05 1917.25 1087.63 1911.6 1063.4 1902.44 C 1000.16 1878.78 941.542 1822.96 913.626 1761.34 C 885.892 1700.13 886.474 1659.61 888.953 1595.32 C 871.561 1596.82 834.762 1596.03 816.282 1595.72 C 818.794 1593.51 876.112 1595.77 888.574 1591.78 C 892.277 1582.45 895.644 1566.79 898.581 1556.6 C 915.506 1497.88 955.267 1447.28 1006.96 1415.08 C 1019.21 1407.44 1033.01 1400.86 1045.93 1393.85 z" />
  <path transform="translate(0,0)" fill="rgb(162,208,227)" d="M 1736.22 1481.69 C 1824.17 1478.23 1898.26 1546.77 1901.65 1634.72 C 1905.04 1722.68 1836.46 1796.72 1748.5 1800.05 C 1660.63 1803.37 1586.68 1734.87 1583.29 1647 C 1579.91 1559.13 1648.35 1485.14 1736.22 1481.69 z" />
  <path transform="translate(0,0)" fill="rgb(162,208,227)" d="M 1273.37 1494.15 C 1285.16 1493.41 1294.78 1496.98 1304.06 1504.17 C 1338.57 1530.94 1372.26 1558.71 1406.84 1585.43 C 1421.43 1596.7 1445.57 1613.59 1453.81 1629.68 C 1458.6 1638.96 1459.34 1649.81 1455.84 1659.65 C 1446.82 1684.58 1350.3 1747.12 1326.94 1769.75 C 1303.52 1792.43 1267.78 1811.84 1249.72 1768.96 C 1245.68 1750.73 1246.96 1718.22 1247.06 1698.18 C 1245.48 1698.27 1243.89 1698.35 1242.31 1698.4 C 1233.07 1698.64 1222.84 1698.81 1213.32 1698.55 C 1169.82 1697.39 1122.29 1701.6 1079.55 1695.93 C 1058.18 1693.1 1037.95 1666.78 1038.76 1645.29 C 1037.57 1622.96 1060.07 1596.87 1081.83 1591.52 C 1099.43 1587.18 1130.48 1588.68 1150.13 1588.68 L 1246.95 1588.93 C 1246.88 1574.74 1246.7 1560.48 1246.84 1546.29 C 1247.07 1522.85 1248.59 1503.41 1273.37 1494.15 z" />
</svg>